# xmcd CD database file
#
# Track frame offsets:
#	150
#	14765
#	29137
#	46425
#	65835
#	83202
#	100325
#	119087
#	140437
#	161650
#	182125
#	203325
#	221340
#	236537
#	253862
#
# Disc length: 3643 seconds
#
# Revision: 0
# Processed by: cddbd v1.5.1PL0 Copyright (c) Steve Scherf et al.
# Submitted via: CDex 1.51
#
DISCID=e20e390f
DTITLE=CBS・ソニー グランドオーケストラ - 山下達郎／大瀧詠一・作品集
DYEAR=1987
DGENRE=Instrumental
TTITLE0=土曜日の恋人
TTITLE1=風の回廊
TTITLE2=The Theme From BIG WAVE
TTITLE3=Loveland,Island
TTITLE4=高気圧ガール
TTITLE5=あまく危険な香り
TTITLE6=My Sugar Bave
TTITLE7=Ride on Time
TTITLE8=熱き心に
TTITLE9=バチェラー・ガール
TTITLE10=君は天然色
TTITLE11=カナリア諸島にて
TTITLE12=恋するカレン
TTITLE13=さらばシベリア鉄道
TTITLE14=雨のウェンズデイ
EXTD=YEAR: 1987
EXTT0=
EXTT1=
EXTT2=
EXTT3=
EXTT4=
EXTT5=
EXTT6=
EXTT7=
EXTT8=
EXTT9=
EXTT10=
EXTT11=
EXTT12=
EXTT13=
EXTT14=
PLAYORDER=
